<mxfile host="app.diagrams.net" modified="2020-12-29T06:00:19.525Z" agent="5.0 (Windows NT 10.0; Win64; x64) AppleWebKit/537.36 (KHTML, like Gecko) Chrome/87.0.4280.88 Safari/537.36" etag="6eFh1ykAE9BVQyvzvtFT" version="14.1.3" type="github">
  <diagram id="V0J1fQzQb9ZRR8qxu8KL" name="Page-1">
    <mxGraphModel dx="723" dy="386" grid="1" gridSize="10" guides="1" tooltips="1" connect="1" arrows="1" fold="1" page="1" pageScale="1" pageWidth="827" pageHeight="1169" background="#283618" math="0" shadow="1">
      <root>
        <mxCell id="0" />
        <mxCell id="1" parent="0" />
        <mxCell id="bTQ72P3Y28BSJyBN74Zh-3" style="edgeStyle=orthogonalEdgeStyle;orthogonalLoop=1;jettySize=auto;html=1;exitX=0.5;exitY=1;exitDx=0;exitDy=0;entryX=0.5;entryY=0;entryDx=0;entryDy=0;strokeColor=#DDA15E;fontColor=#FEFAE0;labelBackgroundColor=#283618;" parent="1" source="bTQ72P3Y28BSJyBN74Zh-1" target="bTQ72P3Y28BSJyBN74Zh-2" edge="1">
          <mxGeometry relative="1" as="geometry" />
        </mxCell>
        <mxCell id="bTQ72P3Y28BSJyBN74Zh-1" value="randomNumber;" style="shape=hexagon;perimeter=hexagonPerimeter2;whiteSpace=wrap;html=1;fixedSize=1;fillColor=#BC6C25;strokeColor=#DDA15E;fontColor=#FEFAE0;" parent="1" vertex="1">
          <mxGeometry x="356" y="70" width="204" height="50" as="geometry" />
        </mxCell>
        <mxCell id="bTQ72P3Y28BSJyBN74Zh-6" style="edgeStyle=orthogonalEdgeStyle;orthogonalLoop=1;jettySize=auto;html=1;exitX=0.5;exitY=1;exitDx=0;exitDy=0;entryX=0.5;entryY=0;entryDx=0;entryDy=0;strokeColor=#DDA15E;fontColor=#FEFAE0;labelBackgroundColor=#283618;" parent="1" source="bTQ72P3Y28BSJyBN74Zh-2" target="bTQ72P3Y28BSJyBN74Zh-4" edge="1">
          <mxGeometry relative="1" as="geometry" />
        </mxCell>
        <mxCell id="bTQ72P3Y28BSJyBN74Zh-2" value="randomStringNumber = randomNumber.toString()" style="whiteSpace=wrap;html=1;fillColor=#BC6C25;strokeColor=#DDA15E;fontColor=#FEFAE0;" parent="1" vertex="1">
          <mxGeometry x="370" y="150" width="176" height="60" as="geometry" />
        </mxCell>
        <mxCell id="bTQ72P3Y28BSJyBN74Zh-8" style="edgeStyle=orthogonalEdgeStyle;orthogonalLoop=1;jettySize=auto;html=1;exitX=0.5;exitY=1;exitDx=0;exitDy=0;entryX=0.5;entryY=0;entryDx=0;entryDy=0;strokeColor=#DDA15E;fontColor=#FEFAE0;labelBackgroundColor=#283618;" parent="1" source="bTQ72P3Y28BSJyBN74Zh-4" target="bTQ72P3Y28BSJyBN74Zh-7" edge="1">
          <mxGeometry relative="1" as="geometry" />
        </mxCell>
        <mxCell id="bTQ72P3Y28BSJyBN74Zh-4" value="splittedNumber = randomStringNumber .split(0)" style="whiteSpace=wrap;html=1;fillColor=#BC6C25;strokeColor=#DDA15E;fontColor=#FEFAE0;" parent="1" vertex="1">
          <mxGeometry x="370" y="240" width="176" height="60" as="geometry" />
        </mxCell>
        <mxCell id="bTQ72P3Y28BSJyBN74Zh-11" style="edgeStyle=orthogonalEdgeStyle;orthogonalLoop=1;jettySize=auto;html=1;exitX=0.5;exitY=1;exitDx=0;exitDy=0;entryX=0.5;entryY=0;entryDx=0;entryDy=0;strokeColor=#DDA15E;fontColor=#FEFAE0;labelBackgroundColor=#283618;" parent="1" source="bTQ72P3Y28BSJyBN74Zh-7" target="bTQ72P3Y28BSJyBN74Zh-10" edge="1">
          <mxGeometry relative="1" as="geometry" />
        </mxCell>
        <mxCell id="bTQ72P3Y28BSJyBN74Zh-23" style="edgeStyle=orthogonalEdgeStyle;orthogonalLoop=1;jettySize=auto;html=1;exitX=0;exitY=0.5;exitDx=0;exitDy=0;entryX=0.5;entryY=0;entryDx=0;entryDy=0;strokeColor=#DDA15E;fontColor=#FEFAE0;labelBackgroundColor=#283618;" parent="1" source="bTQ72P3Y28BSJyBN74Zh-7" target="bTQ72P3Y28BSJyBN74Zh-22" edge="1">
          <mxGeometry relative="1" as="geometry" />
        </mxCell>
        <mxCell id="bTQ72P3Y28BSJyBN74Zh-7" value="&lt;span&gt;index = 0&lt;br&gt;index &amp;lt; splittedNumber.length ?&lt;/span&gt;" style="rhombus;whiteSpace=wrap;html=1;fillColor=#BC6C25;strokeColor=#DDA15E;fontColor=#FEFAE0;" parent="1" vertex="1">
          <mxGeometry x="352.75" y="330" width="210.5" height="200" as="geometry" />
        </mxCell>
        <mxCell id="bTQ72P3Y28BSJyBN74Zh-13" style="edgeStyle=orthogonalEdgeStyle;orthogonalLoop=1;jettySize=auto;html=1;exitX=0.5;exitY=1;exitDx=0;exitDy=0;entryX=0.5;entryY=0;entryDx=0;entryDy=0;strokeColor=#DDA15E;fontColor=#FEFAE0;labelBackgroundColor=#283618;" parent="1" source="bTQ72P3Y28BSJyBN74Zh-10" target="bTQ72P3Y28BSJyBN74Zh-12" edge="1">
          <mxGeometry relative="1" as="geometry" />
        </mxCell>
        <mxCell id="bTQ72P3Y28BSJyBN74Zh-10" value="splittedNumberSplit = randomStringNumber[index] .split(&#39;&#39;)" style="whiteSpace=wrap;html=1;fillColor=#BC6C25;strokeColor=#DDA15E;fontColor=#FEFAE0;" parent="1" vertex="1">
          <mxGeometry x="340" y="560" width="234" height="60" as="geometry" />
        </mxCell>
        <mxCell id="bTQ72P3Y28BSJyBN74Zh-15" style="edgeStyle=orthogonalEdgeStyle;orthogonalLoop=1;jettySize=auto;html=1;exitX=0.5;exitY=1;exitDx=0;exitDy=0;entryX=0.5;entryY=0;entryDx=0;entryDy=0;strokeColor=#DDA15E;fontColor=#FEFAE0;labelBackgroundColor=#283618;" parent="1" source="bTQ72P3Y28BSJyBN74Zh-12" target="bTQ72P3Y28BSJyBN74Zh-14" edge="1">
          <mxGeometry relative="1" as="geometry" />
        </mxCell>
        <mxCell id="bTQ72P3Y28BSJyBN74Zh-12" value="splittedNumberSplit.sort(a - b)" style="whiteSpace=wrap;html=1;fillColor=#BC6C25;strokeColor=#DDA15E;fontColor=#FEFAE0;" parent="1" vertex="1">
          <mxGeometry x="341" y="650" width="234" height="60" as="geometry" />
        </mxCell>
        <mxCell id="bTQ72P3Y28BSJyBN74Zh-16" style="edgeStyle=orthogonalEdgeStyle;orthogonalLoop=1;jettySize=auto;html=1;exitX=0.5;exitY=1;exitDx=0;exitDy=0;entryX=1;entryY=0.5;entryDx=0;entryDy=0;strokeColor=#DDA15E;fontColor=#FEFAE0;labelBackgroundColor=#283618;" parent="1" source="bTQ72P3Y28BSJyBN74Zh-14" target="bTQ72P3Y28BSJyBN74Zh-7" edge="1">
          <mxGeometry relative="1" as="geometry">
            <Array as="points">
              <mxPoint x="458" y="820" />
              <mxPoint x="624" y="820" />
              <mxPoint x="624" y="430" />
            </Array>
          </mxGeometry>
        </mxCell>
        <mxCell id="bTQ72P3Y28BSJyBN74Zh-14" value="arrayNumber.push(splittedNumberSplit);&lt;br&gt;index ++" style="whiteSpace=wrap;html=1;fillColor=#BC6C25;strokeColor=#DDA15E;fontColor=#FEFAE0;" parent="1" vertex="1">
          <mxGeometry x="346" y="740" width="224" height="60" as="geometry" />
        </mxCell>
        <mxCell id="bTQ72P3Y28BSJyBN74Zh-29" style="edgeStyle=orthogonalEdgeStyle;orthogonalLoop=1;jettySize=auto;html=1;exitX=0.5;exitY=1;exitDx=0;exitDy=0;entryX=0.5;entryY=0;entryDx=0;entryDy=0;strokeColor=#DDA15E;fontColor=#FEFAE0;labelBackgroundColor=#283618;" parent="1" source="bTQ72P3Y28BSJyBN74Zh-21" target="bTQ72P3Y28BSJyBN74Zh-27" edge="1">
          <mxGeometry relative="1" as="geometry" />
        </mxCell>
        <mxCell id="bTQ72P3Y28BSJyBN74Zh-21" value="result = finalArray.replace(/,/g , &#39;&#39;)" style="whiteSpace=wrap;html=1;fillColor=#BC6C25;strokeColor=#DDA15E;fontColor=#FEFAE0;" parent="1" vertex="1">
          <mxGeometry x="130" y="650" width="185" height="60" as="geometry" />
        </mxCell>
        <mxCell id="bTQ72P3Y28BSJyBN74Zh-24" style="edgeStyle=orthogonalEdgeStyle;orthogonalLoop=1;jettySize=auto;html=1;exitX=0.5;exitY=1;exitDx=0;exitDy=0;entryX=0.5;entryY=0;entryDx=0;entryDy=0;strokeColor=#DDA15E;fontColor=#FEFAE0;labelBackgroundColor=#283618;" parent="1" source="bTQ72P3Y28BSJyBN74Zh-22" target="bTQ72P3Y28BSJyBN74Zh-21" edge="1">
          <mxGeometry relative="1" as="geometry" />
        </mxCell>
        <mxCell id="bTQ72P3Y28BSJyBN74Zh-22" value="finalArray = arrayNumber.join()" style="whiteSpace=wrap;html=1;fillColor=#BC6C25;strokeColor=#DDA15E;fontColor=#FEFAE0;" parent="1" vertex="1">
          <mxGeometry x="130" y="560" width="185" height="60" as="geometry" />
        </mxCell>
        <mxCell id="bTQ72P3Y28BSJyBN74Zh-30" style="edgeStyle=orthogonalEdgeStyle;orthogonalLoop=1;jettySize=auto;html=1;exitX=0.5;exitY=1;exitDx=0;exitDy=0;entryX=0.5;entryY=0;entryDx=0;entryDy=0;strokeColor=#DDA15E;fontColor=#FEFAE0;labelBackgroundColor=#283618;" parent="1" source="bTQ72P3Y28BSJyBN74Zh-27" target="bTQ72P3Y28BSJyBN74Zh-28" edge="1">
          <mxGeometry relative="1" as="geometry">
            <Array as="points">
              <mxPoint x="223" y="900" />
              <mxPoint x="457" y="900" />
            </Array>
          </mxGeometry>
        </mxCell>
        <mxCell id="bTQ72P3Y28BSJyBN74Zh-27" value="parseInt(result)" style="whiteSpace=wrap;html=1;fillColor=#BC6C25;strokeColor=#DDA15E;fontColor=#FEFAE0;" parent="1" vertex="1">
          <mxGeometry x="130" y="740" width="185" height="60" as="geometry" />
        </mxCell>
        <mxCell id="bTQ72P3Y28BSJyBN74Zh-28" value="result" style="shape=parallelogram;perimeter=parallelogramPerimeter;whiteSpace=wrap;html=1;fixedSize=1;fillColor=#BC6C25;strokeColor=#DDA15E;fontColor=#FEFAE0;" parent="1" vertex="1">
          <mxGeometry x="345" y="930" width="224" height="60" as="geometry" />
        </mxCell>
        <mxCell id="7hKL61Jqax0rFlgbkCyw-1" value="Yes" style="text;html=1;strokeColor=none;fillColor=none;align=center;verticalAlign=middle;whiteSpace=wrap;fontColor=#FEFAE0;" parent="1" vertex="1">
          <mxGeometry x="414" y="530" width="40" height="20" as="geometry" />
        </mxCell>
        <mxCell id="7hKL61Jqax0rFlgbkCyw-3" value="No" style="text;html=1;strokeColor=none;fillColor=none;align=center;verticalAlign=middle;whiteSpace=wrap;fontColor=#FEFAE0;" parent="1" vertex="1">
          <mxGeometry x="312.75" y="440" width="40" height="20" as="geometry" />
        </mxCell>
      </root>
    </mxGraphModel>
  </diagram>
</mxfile>
